Pacifico-Bold.ufo
<glyph name="numbersign" format="1">
  <advance width="577.045"/>
  <unicode hex="0023"/>
  <outline>
    <contour>
      <point x="125" y="9"/>
      <point x="150" y="-13"/>
      <point x="171" y="-13" type="curve" smooth="yes"/>
      <point x="197" y="-13"/>
      <point x="213" y="-4"/>
      <point x="224" y="20" type="curve" smooth="yes"/>
      <point x="284" y="151" type="line"/>
      <point x="379" y="150" type="line"/>
      <point x="336" y="36" type="line" smooth="yes"/>
      <point x="326" y="10"/>
      <point x="338" y="-15"/>
      <point x="376" y="-12" type="curve" smooth="yes"/>
      <point x="402" y="-10"/>
      <point x="411" y="4"/>
      <point x="421" y="31" type="curve" smooth="yes"/>
      <point x="464" y="150" type="line"/>
      <point x="480" y="150" type="line"/>
      <point x="527" y="150"/>
      <point x="563" y="162"/>
      <point x="563" y="209" type="curve" smooth="yes"/>
      <point x="563" y="229"/>
      <point x="548" y="235"/>
      <point x="530" y="236" type="curve"/>
      <point x="498" y="236" type="line"/>
      <point x="529" y="322" type="line"/>
      <point x="587" y="323"/>
      <point x="633" y="333"/>
      <point x="633" y="382" type="curve" smooth="yes"/>
      <point x="633" y="402"/>
      <point x="618" y="409"/>
      <point x="601" y="409" type="curve" smooth="yes"/>
      <point x="556" y="409" type="line"/>
      <point x="594" y="506" type="line" smooth="yes"/>
      <point x="606" y="537"/>
      <point x="600" y="558"/>
      <point x="578" y="560" type="curve" smooth="yes"/>
      <point x="547" y="563"/>
      <point x="526" y="550"/>
      <point x="510" y="509" type="curve" smooth="yes"/>
      <point x="470" y="409" type="line"/>
      <point x="392" y="409" type="line"/>
      <point x="435" y="511" type="line" smooth="yes"/>
      <point x="446" y="538"/>
      <point x="436" y="556"/>
      <point x="420" y="559" type="curve" smooth="yes"/>
      <point x="384" y="566"/>
      <point x="356" y="544"/>
      <point x="340" y="507" type="curve" smooth="yes"/>
      <point x="298" y="409" type="line"/>
      <point x="233" y="409"/>
      <point x="201" y="409"/>
      <point x="195" y="364" type="curve" smooth="yes"/>
      <point x="191" y="332"/>
      <point x="221" y="323"/>
      <point x="264" y="322" type="curve"/>
      <point x="224" y="234" type="line"/>
      <point x="168" y="233"/>
      <point x="141" y="231"/>
      <point x="134" y="191" type="curve" smooth="yes"/>
      <point x="129" y="164"/>
      <point x="151" y="154"/>
      <point x="189" y="152" type="curve"/>
      <point x="143" y="49" type="line" smooth="yes"/>
    </contour>
    <contour>
      <point x="318" y="235" type="line"/>
      <point x="355" y="322" type="line"/>
      <point x="446" y="322" type="line"/>
      <point x="413" y="235" type="line"/>
    </contour>
  </outline>
</glyph>
<glyph name="zero" format="1">
  <advance width="417"/>
  <unicode hex="0030"/>
  <outline>
    <contour>
      <point x="304" y="261" type="curve" smooth="yes"/>
      <point x="293" y="116"/>
      <point x="248" y="75"/>
      <point x="199" y="81" type="curve" smooth="yes"/>
      <point x="161" y="86"/>
      <point x="145" y="136"/>
      <point x="150" y="210" type="curve" smooth="yes"/>
      <point x="160" y="349"/>
      <point x="208" y="409"/>
      <point x="256" y="403" type="curve" smooth="yes"/>
      <point x="304" y="397"/>
      <point x="310" y="336"/>
    </contour>
    <contour>
      <point x="187" y="-7" type="curve" smooth="yes"/>
      <point x="293" y="-13"/>
      <point x="392" y="57"/>
      <point x="408" y="273" type="curve" smooth="yes"/>
      <point x="417" y="388"/>
      <point x="374" y="490"/>
      <point x="263" y="495" type="curve" smooth="yes"/>
      <point x="129" y="501"/>
      <point x="48" y="375"/>
      <point x="42" y="190" type="curve" smooth="yes"/>
      <point x="39" y="85"/>
      <point x="87" y="-1"/>
    </contour>
  </outline>
</glyph>
<glyph name="one" format="1">
  <advance width="333"/>
  <unicode hex="0031"/>
  <outline>
    <contour>
      <point x="235" y="12" type="curve" smooth="yes"/>
      <point x="271" y="170"/>
      <point x="316" y="417"/>
      <point x="322" y="448" type="curve" smooth="yes"/>
      <point x="327" y="475"/>
      <point x="323" y="496"/>
      <point x="303" y="492" type="curve" smooth="yes"/>
      <point x="268" y="485"/>
      <point x="157" y="465"/>
      <point x="129" y="456" type="curve" smooth="yes"/>
      <point x="105" y="449"/>
      <point x="109" y="365"/>
      <point x="134" y="372" type="curve" smooth="yes"/>
      <point x="147" y="375"/>
      <point x="202" y="391"/>
      <point x="218" y="397" type="curve"/>
      <point x="198" y="312"/>
      <point x="169" y="181"/>
      <point x="137" y="22" type="curve" smooth="yes"/>
      <point x="128" y="-27"/>
      <point x="228" y="-26"/>
    </contour>
  </outline>
</glyph>
<glyph name="greater" format="1">
  <advance width="404"/>
  <unicode hex="003E"/>
  <outline>
    <contour>
      <point x="63" y="39"/>
      <point x="86" y="32"/>
      <point x="135" y="50" type="curve" smooth="yes"/>
      <point x="310" y="115" type="line" smooth="yes"/>
      <point x="375" y="139"/>
      <point x="388" y="149"/>
      <point x="388" y="198" type="curve" smooth="yes"/>
      <point x="388" y="262"/>
      <point x="343" y="272"/>
      <point x="317" y="282" type="curve" smooth="yes"/>
      <point x="114" y="362" type="line" smooth="yes"/>
      <point x="61" y="383"/>
      <point x="41" y="352"/>
      <point x="41" y="304" type="curve" smooth="yes"/>
      <point x="41" y="281"/>
      <point x="56" y="274"/>
      <point x="70" y="270" type="curve" smooth="yes"/>
      <point x="275" y="205" type="line"/>
      <point x="85" y="138" type="line" smooth="yes"/>
      <point x="58" y="128"/>
      <point x="27" y="112"/>
      <point x="52" y="61" type="curve" smooth="yes"/>
    </contour>
  </outline>
</glyph>
<glyph name="D" format="1">
  <advance width="636"/>
  <unicode hex="0044"/>
  <outline>
    <contour>
      <point x="223" y="-51" type="curve" smooth="yes"/>
      <point x="400" y="-43"/>
      <point x="636" y="76"/>
      <point x="633" y="399" type="curve" smooth="yes"/>
      <point x="630" y="588"/>
      <point x="497" y="701"/>
      <point x="265" y="682" type="curve" smooth="yes"/>
      <point x="193" y="676"/>
      <point x="111" y="649"/>
      <point x="61" y="588" type="curve" smooth="yes"/>
      <point x="47" y="571"/>
      <point x="31" y="536"/>
      <point x="32" y="502" type="curve" smooth="yes"/>
      <point x="31" y="486"/>
      <point x="38" y="457"/>
      <point x="64" y="457" type="curve" smooth="yes"/>
      <point x="87" y="457"/>
      <point x="129" y="526"/>
      <point x="132" y="531" type="curve" smooth="yes"/>
      <point x="176" y="576"/>
      <point x="232" y="586"/>
      <point x="278" y="588" type="curve" smooth="yes"/>
      <point x="445" y="594"/>
      <point x="528" y="501"/>
      <point x="534" y="394" type="curve" smooth="yes"/>
      <point x="540" y="201"/>
      <point x="379" y="25"/>
      <point x="210" y="25" type="curve" smooth="yes"/>
      <point x="188" y="25"/>
      <point x="187" y="48"/>
      <point x="188" y="86" type="curve" smooth="yes"/>
      <point x="187" y="212"/>
      <point x="250" y="428"/>
      <point x="309" y="502" type="curve"/>
      <point x="294" y="528"/>
      <point x="271" y="543"/>
      <point x="249" y="543" type="curve" smooth="yes"/>
      <point x="233" y="542"/>
      <point x="218" y="535"/>
      <point x="207" y="519" type="curve" smooth="yes"/>
      <point x="136" y="415"/>
      <point x="79" y="193"/>
      <point x="80" y="21" type="curve" smooth="yes"/>
      <point x="79" y="4"/>
      <point x="90" y="-12"/>
      <point x="104" y="-20" type="curve" smooth="yes"/>
      <point x="124" y="-32"/>
      <point x="176" y="-53"/>
    </contour>
    <contour>
      <point x="227" y="-36" type="move" name="bot"/>
    </contour>
  </outline>
</glyph>
<glyph name="L" format="1">
  <advance width="645.003"/>
  <unicode hex="004C"/>
  <outline>
    <contour>
      <point x="182" y="-121" type="curve" smooth="yes"/>
      <point x="423" y="-109"/>
      <point x="482" y="89"/>
      <point x="496" y="333" type="curve" smooth="yes"/>
      <point x="509" y="554"/>
      <point x="541" y="616"/>
      <point x="645" y="614" type="curve" smooth="yes"/>
      <point x="708" y="613"/>
      <point x="748" y="582"/>
      <point x="750" y="531" type="curve" smooth="yes"/>
      <point x="753" y="450"/>
      <point x="648" y="348"/>
      <point x="277" y="427" type="curve" smooth="yes"/>
      <point x="228" y="437"/>
      <point x="214" y="360"/>
      <point x="261" y="350" type="curve" smooth="yes"/>
      <point x="698" y="260"/>
      <point x="841" y="379"/>
      <point x="858" y="501" type="curve" smooth="yes"/>
      <point x="874" y="617"/>
      <point x="787" y="691"/>
      <point x="659" y="700" type="curve" smooth="yes"/>
      <point x="553" y="707"/>
      <point x="402" y="674"/>
      <point x="383" y="417" type="curve" smooth="yes"/>
      <point x="367" y="203"/>
      <point x="357" y="-65"/>
      <point x="179" y="-45" type="curve" smooth="yes"/>
      <point x="125" y="-39"/>
      <point x="127" y="21"/>
      <point x="169" y="28" type="curve" smooth="yes"/>
      <point x="318" y="53"/>
      <point x="744" y="-414"/>
      <point x="894" y="-136" type="curve" smooth="yes"/>
      <point x="922" y="-84"/>
      <point x="851" y="-48"/>
      <point x="824" y="-89" type="curve" smooth="yes"/>
      <point x="706" y="-268"/>
      <point x="402" y="114"/>
      <point x="165" y="110" type="curve" smooth="yes"/>
      <point x="4" y="107"/>
      <point x="-11" y="-131"/>
    </contour>
    <contour>
      <point x="401" y="-160" type="move" name="bot"/>
    </contour>
  </outline>
</glyph>
<glyph name="U" format="1">
  <advance width="632"/>
  <unicode hex="0055"/>
  <outline>
    <contour>
      <point x="289" y="18" type="curve" smooth="yes"/>
      <point x="106" y="18"/>
      <point x="180" y="368"/>
      <point x="293" y="556" type="curve" smooth="yes"/>
      <point x="329" y="613"/>
      <point x="237" y="626"/>
      <point x="206" y="577" type="curve" smooth="yes"/>
      <point x="61" y="355"/>
      <point x="-19" y="-64"/>
      <point x="275" y="-75" type="curve" smooth="yes"/>
      <point x="686" y="-93"/>
      <point x="828" y="708"/>
      <point x="542" y="699" type="curve" smooth="yes"/>
      <point x="276" y="691"/>
      <point x="452" y="173"/>
      <point x="793" y="476" type="curve" smooth="yes"/>
      <point x="821" y="501"/>
      <point x="793" y="549"/>
      <point x="762" y="525" type="curve" smooth="yes"/>
      <point x="514" y="326"/>
      <point x="426" y="613"/>
      <point x="529" y="617" type="curve" smooth="yes"/>
      <point x="676" y="622"/>
      <point x="583" y="18"/>
    </contour>
    <contour>
      <point x="75" y="423" type="curve" smooth="yes"/>
      <point x="257" y="547" type="line"/>
      <point x="284" y="566"/>
      <point x="263" y="622"/>
      <point x="226" y="598" type="curve" smooth="yes"/>
      <point x="46" y="478" type="line"/>
      <point x="12" y="457"/>
      <point x="30" y="394"/>
    </contour>
    <contour>
      <point x="281" y="-69" type="move" name="ogonek"/>
    </contour>
  </outline>
</glyph>
<glyph name="backslash" format="1">
  <advance width="426"/>
  <unicode hex="005C"/>
  <outline>
    <contour>
      <point x="370" y="-10" type="curve" smooth="yes"/>
      <point x="398" y="-0"/>
      <point x="402" y="28"/>
      <point x="383" y="69" type="curve" smooth="yes"/>
      <point x="148" y="583" type="line" smooth="yes"/>
      <point x="128" y="627"/>
      <point x="121" y="649"/>
      <point x="88" y="637" type="curve" smooth="yes"/>
      <point x="52" y="624"/>
      <point x="56" y="600"/>
      <point x="77" y="553" type="curve" smooth="yes"/>
      <point x="309" y="42" type="line" smooth="yes"/>
      <point x="326" y="5"/>
      <point x="344" y="-19"/>
    </contour>
  </outline>
</glyph>
<glyph name="asciicircum" format="1">
  <advance width="372"/>
  <unicode hex="005E"/>
  <outline>
    <contour>
      <point x="68" y="164" type="curve" smooth="yes"/>
      <point x="66" y="164"/>
      <point x="101" y="180"/>
      <point x="114" y="203" type="curve"/>
      <point x="111" y="196"/>
      <point x="215" y="389"/>
      <point x="200" y="373" type="curve"/>
      <point x="190" y="389"/>
      <point x="267" y="206"/>
      <point x="263" y="216" type="curve"/>
      <point x="271" y="198"/>
      <point x="289" y="168"/>
      <point x="319" y="168" type="curve" smooth="yes"/>
      <point x="346" y="168"/>
      <point x="365" y="199"/>
      <point x="352" y="234" type="curve" smooth="yes"/>
      <point x="329" y="295"/>
      <point x="301" y="354"/>
      <point x="275" y="408" type="curve" smooth="yes"/>
      <point x="259" y="439"/>
      <point x="239" y="465"/>
      <point x="194" y="465" type="curve" smooth="yes"/>
      <point x="149" y="465"/>
      <point x="130" y="421"/>
      <point x="113" y="390" type="curve" smooth="yes"/>
      <point x="95" y="356"/>
      <point x="76" y="321"/>
      <point x="57" y="286" type="curve" smooth="yes"/>
      <point x="47" y="265"/>
      <point x="26" y="242"/>
      <point x="26" y="212" type="curve" smooth="yes"/>
      <point x="26" y="195"/>
      <point x="65" y="164"/>
    </contour>
  </outline>
</glyph>
<glyph name="l" format="1">
  <advance width="247.974"/>
  <unicode hex="006C"/>
  <outline>
    <contour>
      <point x="174" y="-5" type="curve" smooth="yes"/>
      <point x="232" y="-5"/>
      <point x="282" y="18"/>
      <point x="338" y="82" type="curve" smooth="yes"/>
      <point x="378" y="125"/>
      <point x="319" y="167"/>
      <point x="294" y="138" type="curve" smooth="yes"/>
      <point x="260" y="99"/>
      <point x="225" y="72"/>
      <point x="189" y="72" type="curve" smooth="yes"/>
      <point x="146" y="72"/>
      <point x="145" y="143"/>
      <point x="149" y="172" type="curve"/>
      <point x="269" y="268"/>
      <point x="392" y="472"/>
      <point x="391" y="581" type="curve" smooth="yes"/>
      <point x="391" y="626"/>
      <point x="370" y="655"/>
      <point x="320" y="655" type="curve" smooth="yes"/>
      <point x="166" y="655"/>
      <point x="75" y="355"/>
      <point x="57" y="181" type="curve" smooth="yes"/>
      <point x="48" y="73"/>
      <point x="95" y="-5"/>
    </contour>
    <contour>
      <point x="303" y="539" type="curve" smooth="yes"/>
      <point x="302" y="486"/>
      <point x="228" y="341"/>
      <point x="160" y="260" type="curve"/>
      <point x="177" y="369"/>
      <point x="233" y="558"/>
      <point x="290" y="558" type="curve" smooth="yes"/>
      <point x="299" y="558"/>
      <point x="303" y="551"/>
    </contour>
  </outline>
</glyph>
<glyph name="n" format="1">
  <advance width="338.003"/>
  <unicode hex="006E"/>
  <outline>
    <contour>
      <point x="250" y="0" type="curve" smooth="yes"/>
      <point x="306" y="-10"/>
      <point x="379" y="31"/>
      <point x="426" y="70" type="curve" smooth="yes"/>
      <point x="451" y="91"/>
      <point x="426" y="157"/>
      <point x="393" y="129" type="curve" smooth="yes"/>
      <point x="358" y="99"/>
      <point x="329" y="82"/>
      <point x="314" y="82" type="curve" smooth="yes"/>
      <point x="305" y="82"/>
      <point x="300" y="88"/>
      <point x="301" y="103" type="curve" smooth="yes"/>
      <point x="308" y="171"/>
      <point x="358" y="241"/>
      <point x="355" y="295" type="curve" smooth="yes"/>
      <point x="353" y="328"/>
      <point x="326" y="336"/>
      <point x="299" y="333" type="curve" smooth="yes"/>
      <point x="245" y="328"/>
      <point x="175" y="274"/>
      <point x="113" y="166" type="curve"/>
      <point x="124" y="216"/>
      <point x="141" y="266"/>
      <point x="150" y="289" type="curve" smooth="yes"/>
      <point x="159" y="312"/>
      <point x="144" y="330"/>
      <point x="121" y="332" type="curve" smooth="yes"/>
      <point x="91" y="335"/>
      <point x="78" y="317"/>
      <point x="68" y="292" type="curve" smooth="yes"/>
      <point x="43" y="230"/>
      <point x="25" y="152"/>
      <point x="24" y="82" type="curve" smooth="yes"/>
      <point x="24" y="46"/>
      <point x="29" y="-2"/>
      <point x="68" y="-2" type="curve" smooth="yes"/>
      <point x="93" y="-2"/>
      <point x="103" y="8"/>
      <point x="115" y="41" type="curve" smooth="yes"/>
      <point x="153" y="148"/>
      <point x="206" y="206"/>
      <point x="235" y="216" type="curve" smooth="yes"/>
      <point x="258" y="224"/>
      <point x="207" y="130"/>
      <point x="204" y="63" type="curve" smooth="yes"/>
      <point x="202" y="23"/>
      <point x="221" y="5"/>
    </contour>
  </outline>
</glyph>
<glyph name="q" format="1">
  <advance width="395"/>
  <unicode hex="0071"/>
  <outline>
    <contour>
      <point x="217" y="55" type="curve"/>
      <point x="89" y="37"/>
      <point x="123" y="273"/>
      <point x="234" y="273" type="curve" smooth="yes"/>
      <point x="251" y="273"/>
      <point x="278" y="268"/>
      <point x="277" y="267" type="curve" smooth="yes"/>
      <point x="270" y="237"/>
      <point x="241" y="122"/>
    </contour>
    <contour>
      <point x="315" y="70" type="line"/>
      <point x="330" y="123"/>
      <point x="357" y="217"/>
      <point x="367" y="268" type="curve" smooth="yes"/>
      <point x="372" y="298"/>
      <point x="300" y="336"/>
      <point x="227" y="336" type="curve"/>
      <point x="-12" y="328"/>
      <point x="-13" y="-39"/>
      <point x="202" y="-16" type="curve"/>
      <point x="184" y="-85"/>
      <point x="154" y="-172"/>
      <point x="131" y="-240" type="curve" smooth="yes"/>
      <point x="121" y="-272"/>
      <point x="208" y="-312"/>
      <point x="223" y="-257" type="curve" smooth="yes"/>
    </contour>
    <contour>
      <point x="304" y="60" type="curve"/>
      <point x="361" y="70"/>
      <point x="464" y="177"/>
      <point x="492" y="233" type="curve" smooth="yes"/>
      <point x="507" y="264"/>
      <point x="466" y="301"/>
      <point x="442" y="266" type="curve" smooth="yes"/>
      <point x="406" y="214"/>
      <point x="328" y="147"/>
      <point x="299" y="133" type="curve"/>
      <point x="178" y="189"/>
      <point x="178" y="-18"/>
    </contour>
  </outline>
</glyph>
<glyph name="yen" format="1">
  <advance width="508"/>
  <unicode hex="00A5"/>
  <outline>
    <contour>
      <point x="182" y="-17"/>
      <point x="286" y="-31"/>
      <point x="304" y="24" type="curve" smooth="yes"/>
      <point x="339" y="133" type="line"/>
      <point x="438" y="133" type="line" smooth="yes"/>
      <point x="469" y="133"/>
      <point x="484" y="139"/>
      <point x="486" y="165" type="curve" smooth="yes"/>
      <point x="487" y="179"/>
      <point x="474" y="185"/>
      <point x="455" y="185" type="curve" smooth="yes"/>
      <point x="354" y="185" type="line"/>
      <point x="368" y="227" type="line"/>
      <point x="459" y="227" type="line" smooth="yes"/>
      <point x="491" y="227"/>
      <point x="502" y="236"/>
      <point x="503" y="253" type="curve" smooth="yes"/>
      <point x="505" y="276"/>
      <point x="484" y="277"/>
      <point x="465" y="277" type="curve" smooth="yes"/>
      <point x="415" y="277" type="line"/>
      <point x="572" y="502" type="line" smooth="yes"/>
      <point x="616" y="564"/>
      <point x="526" y="615"/>
      <point x="486" y="552" type="curve" smooth="yes"/>
      <point x="337" y="320" type="line"/>
      <point x="272" y="553" type="line" smooth="yes"/>
      <point x="255" y="615"/>
      <point x="152" y="588"/>
      <point x="171" y="524" type="curve" smooth="yes"/>
      <point x="245" y="281" type="line"/>
      <point x="170" y="281" type="line" smooth="yes"/>
      <point x="147" y="281"/>
      <point x="128" y="281"/>
      <point x="124" y="255" type="curve" smooth="yes"/>
      <point x="121" y="237"/>
      <point x="138" y="227"/>
      <point x="166" y="227" type="curve" smooth="yes"/>
      <point x="255" y="227" type="line"/>
      <point x="242" y="185" type="line"/>
      <point x="152" y="185" type="line" smooth="yes"/>
      <point x="127" y="185"/>
      <point x="113" y="179"/>
      <point x="111" y="162" type="curve" smooth="yes"/>
      <point x="108" y="141"/>
      <point x="127" y="133"/>
      <point x="145" y="133" type="curve" smooth="yes"/>
      <point x="226" y="133" type="line"/>
      <point x="202" y="51" type="line" smooth="yes"/>
    </contour>
  </outline>
</glyph>
<glyph name="brokenbar" format="1">
  <advance width="350"/>
  <unicode hex="00A6"/>
  <outline>
    <contour>
      <point x="61" y="-3" type="line" smooth="yes"/>
      <point x="45" y="-65"/>
      <point x="130" y="-83"/>
      <point x="145" y="-22" type="curve" smooth="yes"/>
      <point x="204" y="223" type="line" smooth="yes"/>
      <point x="221" y="293"/>
      <point x="140" y="310"/>
      <point x="122" y="238" type="curve" smooth="yes"/>
    </contour>
    <contour>
      <point x="164" y="424" type="line" smooth="yes"/>
      <point x="146" y="361"/>
      <point x="231" y="344"/>
      <point x="248" y="405" type="curve" smooth="yes"/>
      <point x="313" y="643" type="line" smooth="yes"/>
      <point x="327" y="695"/>
      <point x="249" y="726"/>
      <point x="231" y="661" type="curve" smooth="yes"/>
    </contour>
  </outline>
</glyph>
<glyph name="ordfeminine" format="1">
  <advance width="317"/>
  <unicode hex="00AA"/>
  <outline>
    <contour>
      <point x="243" y="268" type="curve" smooth="yes"/>
      <point x="292" y="268"/>
      <point x="320" y="301"/>
      <point x="357" y="338" type="curve"/>
      <point x="337" y="432" type="line"/>
      <point x="306" y="369"/>
      <point x="293" y="346"/>
      <point x="252" y="346" type="curve" smooth="yes"/>
      <point x="245" y="346"/>
      <point x="245" y="356"/>
      <point x="245" y="371" type="curve" smooth="yes"/>
      <point x="245" y="419"/>
      <point x="263" y="459"/>
      <point x="263" y="508" type="curve" smooth="yes"/>
      <point x="263" y="540"/>
      <point x="251" y="541"/>
      <point x="215" y="541" type="curve" smooth="yes"/>
      <point x="200" y="541"/>
      <point x="195" y="563"/>
      <point x="173" y="563" type="curve" smooth="yes"/>
      <point x="158" y="563"/>
      <point x="149" y="559"/>
      <point x="143" y="556" type="curve" smooth="yes"/>
      <point x="74" y="525"/>
      <point x="17" y="449"/>
      <point x="17" y="358" type="curve" smooth="yes"/>
      <point x="17" y="309"/>
      <point x="46" y="269"/>
      <point x="96" y="269" type="curve" smooth="yes"/>
      <point x="134" y="269"/>
      <point x="163" y="290"/>
      <point x="186" y="312" type="curve"/>
      <point x="197" y="289"/>
      <point x="211" y="268"/>
    </contour>
    <contour>
      <point x="121" y="336" type="curve" smooth="yes"/>
      <point x="106" y="336"/>
      <point x="103" y="352"/>
      <point x="103" y="371" type="curve" smooth="yes"/>
      <point x="103" y="420"/>
      <point x="136" y="490"/>
      <point x="182" y="496" type="curve"/>
      <point x="166" y="416" type="line"/>
      <point x="161" y="387"/>
      <point x="149" y="336"/>
    </contour>
  </outline>
</glyph>
<glyph name="guillemotleft" format="1">
  <advance width="566.003"/>
  <unicode hex="00AB"/>
  <outline>
    <contour>
      <point x="244" y="28" type="line" smooth="yes"/>
      <point x="280" y="-3"/>
      <point x="346" y="55"/>
      <point x="304" y="92" type="curve" smooth="yes"/>
      <point x="199" y="185" type="line"/>
      <point x="303" y="259" type="line" smooth="yes"/>
      <point x="352" y="294"/>
      <point x="305" y="363"/>
      <point x="252" y="327" type="curve" smooth="yes"/>
      <point x="119" y="237" type="line" smooth="yes"/>
      <point x="103" y="226"/>
      <point x="96" y="204"/>
      <point x="96" y="182" type="curve" smooth="yes"/>
      <point x="96" y="159"/>
      <point x="111" y="141"/>
      <point x="127" y="127" type="curve" smooth="yes"/>
    </contour>
    <contour>
      <point x="465" y="28" type="line" smooth="yes"/>
      <point x="501" y="-3"/>
      <point x="567" y="55"/>
      <point x="525" y="92" type="curve" smooth="yes"/>
      <point x="420" y="185" type="line"/>
      <point x="524" y="259" type="line" smooth="yes"/>
      <point x="573" y="294"/>
      <point x="526" y="363"/>
      <point x="473" y="327" type="curve" smooth="yes"/>
      <point x="340" y="237" type="line" smooth="yes"/>
      <point x="324" y="226"/>
      <point x="317" y="204"/>
      <point x="317" y="182" type="curve" smooth="yes"/>
      <point x="317" y="159"/>
      <point x="332" y="141"/>
      <point x="348" y="127" type="curve" smooth="yes"/>
    </contour>
  </outline>
</glyph>
<glyph name="acute" format="1">
  <advance width="208"/>
  <unicode hex="00B4"/>
  <outline>
    <contour>
      <point x="153" y="428" type="curve" smooth="yes"/>
      <point x="263" y="554" type="line"/>
      <point x="310" y="605"/>
      <point x="214" y="668"/>
      <point x="185" y="610" type="curve" smooth="yes"/>
      <point x="115" y="458" type="line"/>
      <point x="93" y="417"/>
      <point x="128" y="402"/>
    </contour>
  </outline>
</glyph>
<glyph name="cedilla" format="1">
  <advance width="404"/>
  <unicode hex="00B8"/>
  <outline>
    <contour>
      <point x="184" y="-125" type="curve" smooth="yes"/>
      <point x="229" y="5" type="line"/>
      <point x="234" y="22"/>
      <point x="219" y="36"/>
      <point x="203" y="15" type="curve" smooth="yes"/>
      <point x="110" y="-103" type="line"/>
      <point x="75" y="-150"/>
      <point x="162" y="-188"/>
    </contour>
    <contour>
      <point x="219" y="77" type="move" name="_bot"/>
    </contour>
  </outline>
</glyph>
<glyph name="guillemotright" format="1">
  <advance width="594.996"/>
  <unicode hex="00BB"/>
  <outline>
    <contour>
      <point x="558" y="141"/>
      <point x="574" y="159"/>
      <point x="575" y="182" type="curve" smooth="yes"/>
      <point x="576" y="204"/>
      <point x="570" y="226"/>
      <point x="555" y="237" type="curve" smooth="yes"/>
      <point x="426" y="327" type="line" smooth="yes"/>
      <point x="375" y="363"/>
      <point x="325" y="294"/>
      <point x="372" y="259" type="curve" smooth="yes"/>
      <point x="472" y="185" type="line"/>
      <point x="362" y="92" type="line" smooth="yes"/>
      <point x="318" y="55"/>
      <point x="381" y="-3"/>
      <point x="419" y="28" type="curve" smooth="yes"/>
      <point x="541" y="127" type="line" smooth="yes"/>
    </contour>
    <contour>
      <point x="337" y="141"/>
      <point x="353" y="159"/>
      <point x="354" y="182" type="curve" smooth="yes"/>
      <point x="355" y="204"/>
      <point x="349" y="226"/>
      <point x="334" y="237" type="curve" smooth="yes"/>
      <point x="205" y="327" type="line" smooth="yes"/>
      <point x="154" y="363"/>
      <point x="104" y="294"/>
      <point x="151" y="259" type="curve" smooth="yes"/>
      <point x="251" y="185" type="line"/>
      <point x="141" y="92" type="line" smooth="yes"/>
      <point x="97" y="55"/>
      <point x="160" y="-3"/>
      <point x="198" y="28" type="curve" smooth="yes"/>
      <point x="320" y="127" type="line" smooth="yes"/>
    </contour>
  </outline>
</glyph>
<glyph name="onequarter" format="1">
  <advance width="1017"/>
  <unicode hex="00BC"/>
  <outline>
    <contour>
      <point x="851" y="-21" type="curve" smooth="yes"/>
      <point x="879" y="-21"/>
      <point x="892" y="-18"/>
      <point x="905" y="32" type="curve" smooth="yes"/>
      <point x="914" y="61" type="line"/>
      <point x="903" y="61"/>
      <point x="977" y="63"/>
      <point x="965" y="63" type="curve"/>
      <point x="1011" y="64"/>
      <point x="1020" y="143"/>
      <point x="978" y="142" type="curve" smooth="yes"/>
      <point x="984" y="142"/>
      <point x="896" y="143"/>
      <point x="930" y="143" type="curve"/>
      <point x="938" y="180"/>
      <point x="961" y="265"/>
      <point x="967" y="289" type="curve" smooth="yes"/>
      <point x="972" y="311"/>
      <point x="950" y="316"/>
      <point x="931" y="316" type="curve" smooth="yes"/>
      <point x="904" y="316"/>
      <point x="889" y="302"/>
      <point x="880" y="277" type="curve" smooth="yes"/>
      <point x="874" y="254"/>
      <point x="847" y="166"/>
      <point x="841" y="138" type="curve"/>
      <point x="856" y="149"/>
      <point x="761" y="143"/>
      <point x="766" y="143" type="curve"/>
      <point x="802" y="261"/>
      <point x="833" y="357"/>
      <point x="857" y="440" type="curve" smooth="yes"/>
      <point x="869" y="484"/>
      <point x="784" y="492"/>
      <point x="772" y="455" type="curve" smooth="yes"/>
      <point x="745" y="378"/>
      <point x="690" y="210"/>
      <point x="666" y="132" type="curve" smooth="yes"/>
      <point x="652" y="77"/>
      <point x="667" y="61"/>
      <point x="699" y="61" type="curve" smooth="yes"/>
      <point x="669" y="61"/>
      <point x="858" y="60"/>
      <point x="822" y="60" type="curve"/>
      <point x="816" y="30" type="line"/>
      <point x="810" y="1"/>
      <point x="811" y="-20"/>
    </contour>
    <contour>
      <point x="437" y="-29" type="curve" smooth="yes"/>
      <point x="693" y="575" type="line"/>
      <point x="711" y="619"/>
      <point x="644" y="661"/>
      <point x="617" y="601" type="curve" smooth="yes"/>
      <point x="362" y="15" type="line"/>
      <point x="340" y="-35"/>
      <point x="419" y="-74"/>
    </contour>
    <contour>
      <point x="235" y="217" type="curve" smooth="yes"/>
      <point x="271" y="375"/>
      <point x="316" y="622"/>
      <point x="322" y="653" type="curve" smooth="yes"/>
      <point x="327" y="680"/>
      <point x="323" y="701"/>
      <point x="303" y="697" type="curve" smooth="yes"/>
      <point x="268" y="690"/>
      <point x="157" y="670"/>
      <point x="129" y="662" type="curve" smooth="yes"/>
      <point x="105" y="654"/>
      <point x="109" y="570"/>
      <point x="134" y="577" type="curve" smooth="yes"/>
      <point x="147" y="579"/>
      <point x="202" y="596"/>
      <point x="218" y="602" type="curve"/>
      <point x="198" y="517"/>
      <point x="169" y="386"/>
      <point x="137" y="228" type="curve" smooth="yes"/>
      <point x="128" y="178"/>
      <point x="228" y="181"/>
    </contour>
  </outline>
</glyph>
<glyph name="ae" format="1">
  <advance width="491"/>
  <unicode hex="00E6"/>
  <outline>
    <contour>
      <point x="351" y="-6" type="curve" smooth="yes"/>
      <point x="435" y="-9"/>
      <point x="522" y="41"/>
      <point x="555" y="86" type="curve" smooth="yes"/>
      <point x="582" y="122"/>
      <point x="538" y="152"/>
      <point x="516" y="132" type="curve" smooth="yes"/>
      <point x="477" y="93"/>
      <point x="412" y="73"/>
      <point x="369" y="74" type="curve" smooth="yes"/>
      <point x="338" y="74"/>
      <point x="309" y="88"/>
      <point x="302" y="120" type="curve"/>
      <point x="435" y="126"/>
      <point x="490" y="160"/>
      <point x="490" y="239" type="curve" smooth="yes"/>
      <point x="490" y="296"/>
      <point x="448" y="329"/>
      <point x="393" y="329" type="curve" smooth="yes"/>
      <point x="367" y="329"/>
      <point x="344" y="322"/>
      <point x="323" y="311" type="curve"/>
      <point x="331" y="304"/>
      <point x="349" y="337"/>
      <point x="296" y="337" type="curve" smooth="yes"/>
      <point x="108" y="337"/>
      <point x="16" y="275"/>
      <point x="6" y="117" type="curve" smooth="yes"/>
      <point x="1" y="78"/>
      <point x="16" y="4"/>
      <point x="93" y="-4" type="curve" smooth="yes"/>
      <point x="138" y="-12"/>
      <point x="181" y="-5"/>
      <point x="223" y="73" type="curve"/>
      <point x="244" y="19"/>
      <point x="304" y="-3"/>
    </contour>
    <contour>
      <point x="135" y="82" type="curve" smooth="yes"/>
      <point x="111" y="86"/>
      <point x="110" y="108"/>
      <point x="110" y="124" type="curve" smooth="yes"/>
      <point x="110" y="165"/>
      <point x="151" y="201"/>
      <point x="219" y="238" type="curve" smooth="yes"/>
      <point x="233" y="246"/>
      <point x="247" y="253"/>
      <point x="271" y="261" type="curve"/>
      <point x="244" y="240"/>
      <point x="225" y="190"/>
      <point x="217" y="141" type="curve" smooth="yes"/>
      <point x="216" y="140"/>
      <point x="212" y="140"/>
      <point x="206" y="140" type="curve"/>
      <point x="184" y="110"/>
      <point x="169" y="78"/>
    </contour>
    <contour>
      <point x="301" y="170" type="curve"/>
      <point x="304" y="168"/>
      <point x="305" y="167"/>
      <point x="307" y="165" type="curve" smooth="yes"/>
      <point x="316" y="203"/>
      <point x="355" y="251"/>
      <point x="397" y="251" type="curve" smooth="yes"/>
      <point x="413" y="251"/>
      <point x="423" y="246"/>
      <point x="420" y="223" type="curve" smooth="yes"/>
      <point x="413" y="188"/>
      <point x="315" y="159"/>
    </contour>
    <contour>
      <point x="363" y="0" type="move" name="ogonek"/>
    </contour>
  </outline>
</glyph>
<glyph name="oe" format="1">
  <advance width="471"/>
  <unicode hex="0153"/>
  <outline>
    <contour>
      <point x="486" y="132" type="curve" smooth="yes"/>
      <point x="422" y="72"/>
      <point x="312" y="51"/>
      <point x="285" y="99" type="curve"/>
      <point x="403" y="130"/>
      <point x="460" y="160"/>
      <point x="460" y="239" type="curve" smooth="yes"/>
      <point x="460" y="296"/>
      <point x="417" y="329"/>
      <point x="362" y="329" type="curve" smooth="yes"/>
      <point x="314" y="329"/>
      <point x="274" y="303"/>
      <point x="244" y="268" type="curve"/>
      <point x="224" y="302"/>
      <point x="198" y="327"/>
      <point x="153" y="326" type="curve" smooth="yes"/>
      <point x="105" y="324"/>
      <point x="20" y="278"/>
      <point x="10" y="151" type="curve" smooth="yes"/>
      <point x="1" y="51"/>
      <point x="43" y="2"/>
      <point x="122" y="2" type="curve" smooth="yes"/>
      <point x="156" y="2"/>
      <point x="184" y="22"/>
      <point x="209" y="41" type="curve"/>
      <point x="237" y="6"/>
      <point x="288" y="-4"/>
      <point x="329" y="-6" type="curve" smooth="yes"/>
      <point x="412" y="-7"/>
      <point x="492" y="42"/>
      <point x="525" y="86" type="curve" smooth="yes"/>
      <point x="551" y="123"/>
      <point x="508" y="152"/>
    </contour>
    <contour>
      <point x="155" y="248" type="curve" smooth="yes"/>
      <point x="190" y="251"/>
      <point x="188" y="199"/>
      <point x="188" y="188" type="curve" smooth="yes"/>
      <point x="188" y="116"/>
      <point x="162" y="78"/>
      <point x="133" y="77" type="curve" smooth="yes"/>
      <point x="113" y="80"/>
      <point x="99" y="100"/>
      <point x="103" y="131" type="curve" smooth="yes"/>
      <point x="109" y="188"/>
      <point x="113" y="243"/>
    </contour>
    <contour>
      <point x="278" y="146" type="curve"/>
      <point x="278" y="202"/>
      <point x="324" y="251"/>
      <point x="366" y="251" type="curve" smooth="yes"/>
      <point x="381" y="251"/>
      <point x="391" y="247"/>
      <point x="390" y="228" type="curve" smooth="yes"/>
      <point x="386" y="197"/>
      <point x="312" y="166"/>
    </contour>
  </outline>
</glyph>
<glyph name="florin" format="1">
  <advance width="449"/>
  <unicode hex="0192"/>
  <outline>
    <contour>
      <point x="189" y="-52" type="curve" smooth="yes"/>
      <point x="349" y="-52"/>
      <point x="364" y="200"/>
      <point x="386" y="284" type="curve"/>
      <point x="479" y="284" type="line"/>
      <point x="503" y="284"/>
      <point x="521" y="302"/>
      <point x="521" y="328" type="curve" smooth="yes"/>
      <point x="521" y="355"/>
      <point x="505" y="371"/>
      <point x="479" y="371" type="curve" smooth="yes"/>
      <point x="400" y="371" type="line"/>
      <point x="409" y="423"/>
      <point x="426" y="532"/>
      <point x="485" y="532" type="curve" smooth="yes"/>
      <point x="503" y="532"/>
      <point x="520" y="508"/>
      <point x="546" y="508" type="curve" smooth="yes"/>
      <point x="575" y="508"/>
      <point x="593" y="542"/>
      <point x="593" y="568" type="curve" smooth="yes"/>
      <point x="593" y="614"/>
      <point x="537" y="630"/>
      <point x="497" y="630" type="curve" smooth="yes"/>
      <point x="349" y="630"/>
      <point x="313" y="492"/>
      <point x="300" y="371" type="curve"/>
      <point x="285" y="372"/>
      <point x="270" y="373"/>
      <point x="254" y="373" type="curve" smooth="yes"/>
      <point x="224" y="373"/>
      <point x="197" y="365"/>
      <point x="197" y="328" type="curve" smooth="yes"/>
      <point x="197" y="301"/>
      <point x="212" y="284"/>
      <point x="238" y="284" type="curve" smooth="yes"/>
      <point x="287" y="284" type="line"/>
      <point x="280" y="228"/>
      <point x="284" y="249"/>
      <point x="276" y="206" type="curve" smooth="yes"/>
      <point x="269" y="157"/>
      <point x="254" y="46"/>
      <point x="194" y="46" type="curve" smooth="yes"/>
      <point x="186" y="46"/>
      <point x="176" y="69"/>
      <point x="157" y="69" type="curve" smooth="yes"/>
      <point x="129" y="69"/>
      <point x="110" y="36"/>
      <point x="110" y="10" type="curve" smooth="yes"/>
      <point x="110" y="-33"/>
      <point x="153" y="-52"/>
    </contour>
  </outline>
</glyph>
<glyph name="ring" format="1">
  <advance width="251"/>
  <unicode hex="02DA"/>
  <outline>
    <contour>
      <point x="123" y="431" type="curve" smooth="yes"/>
      <point x="105" y="431"/>
      <point x="93" y="443"/>
      <point x="93" y="460" type="curve" smooth="yes"/>
      <point x="93" y="489"/>
      <point x="117" y="507"/>
      <point x="147" y="507" type="curve" smooth="yes"/>
      <point x="164" y="507"/>
      <point x="172" y="497"/>
      <point x="172" y="482" type="curve" smooth="yes"/>
      <point x="172" y="453"/>
      <point x="152" y="431"/>
    </contour>
    <contour>
      <point x="123" y="376" type="curve" smooth="yes"/>
      <point x="187" y="376"/>
      <point x="233" y="421"/>
      <point x="233" y="487" type="curve" smooth="yes"/>
      <point x="233" y="531"/>
      <point x="203" y="560"/>
      <point x="159" y="560" type="curve" smooth="yes"/>
      <point x="98" y="560"/>
      <point x="40" y="521"/>
      <point x="40" y="460" type="curve" smooth="yes"/>
      <point x="40" y="408"/>
      <point x="72" y="376"/>
    </contour>
  </outline>
</glyph>
<glyph name="tilde" format="1">
  <advance width="328"/>
  <unicode hex="02DC"/>
  <outline>
    <contour>
      <point x="226" y="386" type="curve" smooth="yes"/>
      <point x="271" y="386"/>
      <point x="318" y="440"/>
      <point x="318" y="483" type="curve" smooth="yes"/>
      <point x="318" y="504"/>
      <point x="300" y="516"/>
      <point x="282" y="516" type="curve" smooth="yes"/>
      <point x="245" y="516"/>
      <point x="229" y="481"/>
      <point x="220" y="462" type="curve"/>
      <point x="205" y="475"/>
      <point x="193" y="484"/>
      <point x="183" y="492" type="curve" smooth="yes"/>
      <point x="163" y="508"/>
      <point x="146" y="527"/>
      <point x="111" y="527" type="curve" smooth="yes"/>
      <point x="65" y="527"/>
      <point x="18" y="473"/>
      <point x="18" y="430" type="curve" smooth="yes"/>
      <point x="18" y="409"/>
      <point x="36" y="397"/>
      <point x="55" y="397" type="curve" smooth="yes"/>
      <point x="89" y="397"/>
      <point x="107" y="430"/>
      <point x="117" y="450" type="curve"/>
      <point x="131" y="438"/>
      <point x="144" y="428"/>
      <point x="154" y="421" type="curve" smooth="yes"/>
      <point x="173" y="405"/>
      <point x="191" y="386"/>
    </contour>
  </outline>
</glyph>
<glyph name="quoteleft" format="1">
  <advance width="240"/>
  <unicode hex="2018"/>
  <outline>
    <contour>
      <point x="171" y="625"/>
      <point x="166" y="639"/>
      <point x="144" y="641" type="curve" smooth="yes"/>
      <point x="125" y="643"/>
      <point x="113" y="633"/>
      <point x="105" y="612" type="curve" smooth="yes"/>
      <point x="85" y="561"/>
      <point x="54" y="470"/>
      <point x="38" y="428" type="curve" smooth="yes"/>
      <point x="29" y="403"/>
      <point x="46" y="389"/>
      <point x="65" y="385" type="curve" smooth="yes"/>
      <point x="102" y="377"/>
      <point x="126" y="387"/>
      <point x="131" y="412" type="curve" smooth="yes"/>
      <point x="143" y="471"/>
      <point x="161" y="571"/>
      <point x="167" y="603" type="curve" smooth="yes"/>
    </contour>
  </outline>
</glyph>
<glyph name="dagger" format="1">
  <advance width="394"/>
  <unicode hex="2020"/>
  <outline>
    <contour>
      <point x="146" y="-17" type="line" smooth="yes"/>
      <point x="130" y="-80"/>
      <point x="142" y="-97"/>
      <point x="175" y="-100" type="curve" smooth="yes"/>
      <point x="213" y="-103"/>
      <point x="229" y="-67"/>
      <point x="238" y="-32" type="curve" smooth="yes"/>
      <point x="316" y="273" type="line"/>
      <point x="409" y="273" type="line"/>
      <point x="434" y="273"/>
      <point x="453" y="281"/>
      <point x="453" y="306" type="curve" smooth="yes"/>
      <point x="453" y="324"/>
      <point x="437" y="337"/>
      <point x="415" y="337" type="curve" smooth="yes"/>
      <point x="328" y="337" type="line"/>
      <point x="356" y="451"/>
      <point x="364" y="464"/>
      <point x="359" y="500" type="curve" smooth="yes"/>
      <point x="356" y="507"/>
      <point x="349" y="522"/>
      <point x="329" y="521" type="curve" smooth="yes"/>
      <point x="277" y="518"/>
      <point x="271" y="482"/>
      <point x="234" y="337" type="curve"/>
      <point x="138" y="337" type="line"/>
      <point x="113" y="337"/>
      <point x="95" y="324"/>
      <point x="95" y="303" type="curve" smooth="yes"/>
      <point x="95" y="282"/>
      <point x="111" y="273"/>
      <point x="135" y="273" type="curve" smooth="yes"/>
      <point x="218" y="273" type="line"/>
    </contour>
  </outline>
</glyph>
<glyph name="estimated" format="1">
  <advance width="526"/>
  <unicode hex="212E"/>
  <outline>
    <contour>
      <point x="297" y="56"/>
      <point x="407" y="140" type="curve" smooth="yes"/>
      <point x="420" y="150"/>
      <point x="402" y="172"/>
      <point x="394" y="166" type="curve" smooth="yes"/>
      <point x="299" y="100"/>
      <point x="188" y="139"/>
      <point x="188" y="239" type="curve"/>
      <point x="329" y="224"/>
      <point x="402" y="280"/>
      <point x="402" y="348" type="curve" smooth="yes"/>
      <point x="402" y="392"/>
      <point x="374" y="452"/>
      <point x="290" y="447" type="curve" smooth="yes"/>
      <point x="216" y="443"/>
      <point x="128" y="386"/>
      <point x="133" y="248" type="curve" smooth="yes"/>
      <point x="138" y="97"/>
    </contour>
    <contour>
      <point x="188" y="260" type="curve"/>
      <point x="188" y="368"/>
      <point x="239" y="424"/>
      <point x="287" y="424" type="curve" smooth="yes"/>
      <point x="325" y="424"/>
      <point x="349" y="393"/>
      <point x="349" y="357" type="curve" smooth="yes"/>
      <point x="349" y="309"/>
      <point x="306" y="253"/>
    </contour>
  </outline>
</glyph>
<glyph name="emptyset" format="1">
  <advance width="462"/>
  <unicode hex="2205"/>
  <outline>
    <contour>
      <point x="215" y="-102" type="curve" smooth="yes"/>
      <point x="265" y="36" type="line"/>
      <point x="466" y="32"/>
      <point x="534" y="393"/>
      <point x="395" y="444" type="curve"/>
      <point x="443" y="592" type="line"/>
      <point x="456" y="625"/>
      <point x="418" y="640"/>
      <point x="405" y="601" type="curve" smooth="yes"/>
      <point x="353" y="448" type="line"/>
      <point x="244" y="442"/>
      <point x="150" y="305"/>
      <point x="150" y="179" type="curve" smooth="yes"/>
      <point x="150" y="116"/>
      <point x="174" y="66"/>
      <point x="221" y="46" type="curve"/>
      <point x="177" y="-91" type="line"/>
      <point x="170" y="-115"/>
      <point x="207" y="-127"/>
    </contour>
    <contour>
      <point x="252" y="137" type="line"/>
      <point x="238" y="153"/>
      <point x="232" y="177"/>
      <point x="232" y="200" type="curve" smooth="yes"/>
      <point x="232" y="267"/>
      <point x="274" y="340"/>
      <point x="324" y="357" type="curve"/>
    </contour>
    <contour>
      <point x="292" y="125" type="curve"/>
      <point x="365" y="352" type="line"/>
      <point x="409" y="308"/>
      <point x="370" y="129"/>
    </contour>
  </outline>
</glyph>
<glyph name="summation" format="1">
  <advance width="815"/>
  <unicode hex="2211"/>
  <outline>
    <contour>
      <point x="416" y="658" type="curve" smooth="yes"/>
      <point x="325" y="658"/>
      <point x="263" y="649"/>
      <point x="206" y="627" type="curve" smooth="yes"/>
      <point x="155" y="607"/>
      <point x="178" y="529"/>
      <point x="236" y="549" type="curve"/>
      <point x="255" y="545"/>
      <point x="269" y="560"/>
      <point x="289" y="564" type="curve"/>
      <point x="434" y="317" type="line"/>
      <point x="248" y="153"/>
      <point x="129" y="62"/>
      <point x="133" y="21" type="curve" smooth="yes"/>
      <point x="138" y="-17"/>
      <point x="188" y="-27"/>
      <point x="230" y="16" type="curve"/>
      <point x="374" y="-30"/>
      <point x="530" y="-89"/>
      <point x="740" y="4" type="curve"/>
      <point x="783" y="21"/>
      <point x="754" y="98"/>
      <point x="710" y="79" type="curve" smooth="yes"/>
      <point x="599" y="33"/>
      <point x="497" y="9"/>
      <point x="286" y="86" type="curve"/>
      <point x="353" y="150"/>
      <point x="445" y="213"/>
      <point x="544" y="303" type="curve"/>
      <point x="385" y="574" type="line"/>
      <point x="399" y="574"/>
      <point x="414" y="574"/>
      <point x="432" y="574" type="curve" smooth="yes"/>
      <point x="501" y="574"/>
      <point x="622" y="569"/>
      <point x="689" y="571" type="curve" smooth="yes"/>
      <point x="777" y="573"/>
      <point x="785" y="589"/>
      <point x="785" y="613" type="curve"/>
      <point x="785" y="647"/>
      <point x="763" y="661"/>
      <point x="737" y="659" type="curve" smooth="yes"/>
      <point x="607" y="649"/>
      <point x="541" y="658"/>
    </contour>
  </outline>
</glyph>
<glyph name="infinity" format="1">
  <advance width="695"/>
  <unicode hex="221E"/>
  <outline>
    <contour>
      <point x="142" y="224" type="curve" smooth="yes"/>
      <point x="145" y="135"/>
      <point x="203" y="101"/>
      <point x="285" y="106" type="curve" smooth="yes"/>
      <point x="342" y="108"/>
      <point x="385" y="152"/>
      <point x="410" y="194" type="curve"/>
      <point x="455" y="136"/>
      <point x="488" y="87"/>
      <point x="576" y="107" type="curve" smooth="yes"/>
      <point x="648" y="123"/>
      <point x="669" y="189"/>
      <point x="672" y="245" type="curve" smooth="yes"/>
      <point x="679" y="341"/>
      <point x="614" y="411"/>
      <point x="523" y="388" type="curve" smooth="yes"/>
      <point x="466" y="373"/>
      <point x="424" y="321"/>
      <point x="411" y="288" type="curve"/>
      <point x="376" y="341"/>
      <point x="335" y="391"/>
      <point x="258" y="387" type="curve" smooth="yes"/>
      <point x="174" y="382"/>
      <point x="139" y="314"/>
    </contour>
    <contour>
      <point x="225" y="250" type="curve" smooth="yes"/>
      <point x="228" y="285"/>
      <point x="253" y="296"/>
      <point x="269" y="296" type="curve" smooth="yes"/>
      <point x="308" y="295"/>
      <point x="342" y="269"/>
      <point x="359" y="240" type="curve"/>
      <point x="345" y="220"/>
      <point x="320" y="185"/>
      <point x="277" y="190" type="curve" smooth="yes"/>
      <point x="247" y="196"/>
      <point x="223" y="204"/>
    </contour>
    <contour>
      <point x="462" y="238" type="curve"/>
      <point x="476" y="256"/>
      <point x="516" y="299"/>
      <point x="536" y="303" type="curve" smooth="yes"/>
      <point x="574" y="308"/>
      <point x="589" y="284"/>
      <point x="592" y="244" type="curve" smooth="yes"/>
      <point x="593" y="234"/>
      <point x="575" y="211"/>
      <point x="551" y="205" type="curve" smooth="yes"/>
      <point x="524" y="197"/>
      <point x="466" y="231"/>
    </contour>
  </outline>
</glyph>
<glyph name="integral" format="1">
  <advance width="470"/>
  <unicode hex="222B"/>
  <outline>
    <contour>
      <point x="181" y="-49" type="curve" smooth="yes"/>
      <point x="342" y="-49"/>
      <point x="360" y="166"/>
      <point x="375" y="293" type="curve" smooth="yes"/>
      <point x="393" y="428"/>
      <point x="406" y="537"/>
      <point x="475" y="537" type="curve" smooth="yes"/>
      <point x="495" y="537"/>
      <point x="509" y="513"/>
      <point x="536" y="513" type="curve" smooth="yes"/>
      <point x="562" y="513"/>
      <point x="580" y="546"/>
      <point x="580" y="572" type="curve" smooth="yes"/>
      <point x="580" y="618"/>
      <point x="525" y="633"/>
      <point x="486" y="633" type="curve" smooth="yes"/>
      <point x="333" y="633"/>
      <point x="306" y="488"/>
      <point x="281" y="296" type="curve" smooth="yes"/>
      <point x="256" y="119"/>
      <point x="265" y="47"/>
      <point x="187" y="47" type="curve" smooth="yes"/>
      <point x="177" y="47"/>
      <point x="165" y="71"/>
      <point x="149" y="71" type="curve" smooth="yes"/>
      <point x="122" y="71"/>
      <point x="104" y="38"/>
      <point x="104" y="13" type="curve" smooth="yes"/>
      <point x="104" y="-31"/>
      <point x="144" y="-49"/>
    </contour>
  </outline>
</glyph>
<glyph name="lessequal" format="1">
  <advance width="526"/>
  <unicode hex="2264"/>
  <outline>
    <contour>
      <point x="138" y="-30"/>
      <point x="149" y="-38"/>
      <point x="194" y="-38" type="curve" smooth="yes"/>
      <point x="405" y="-36" type="line" smooth="yes"/>
      <point x="454" y="-36"/>
      <point x="464" y="-19"/>
      <point x="460" y="17" type="curve" smooth="yes"/>
      <point x="457" y="40"/>
      <point x="445" y="45"/>
      <point x="415" y="45" type="curve" smooth="yes"/>
      <point x="193" y="45" type="line" smooth="yes"/>
      <point x="165" y="45"/>
      <point x="142" y="43"/>
      <point x="140" y="4" type="curve" smooth="yes"/>
    </contour>
    <component base="less" xOffset="98" yOffset="44"/>
  </outline>
</glyph>
<glyph name="fi" format="1">
  <advance width="441"/>
  <unicode hex="FB01"/>
  <outline>
    <contour>
      <point x="113" y="-208" type="curve" smooth="yes"/>
      <point x="199" y="-208"/>
      <point x="230" y="-121"/>
      <point x="236" y="-21" type="curve" smooth="yes"/>
      <point x="239" y="33"/>
      <point x="221" y="84"/>
      <point x="201" y="126" type="curve"/>
      <point x="228" y="131"/>
      <point x="253" y="137"/>
      <point x="279" y="139" type="curve"/>
      <point x="257" y="81"/>
      <point x="296" y="-14"/>
      <point x="374" y="-11" type="curve" smooth="yes"/>
      <point x="439" y="-8"/>
      <point x="492" y="32"/>
      <point x="526" y="62" type="curve"/>
      <point x="587" y="110"/>
      <point x="535" y="172"/>
      <point x="500" y="141" type="curve"/>
      <point x="447" y="85"/>
      <point x="430" y="71"/>
      <point x="387" y="70" type="curve" smooth="yes"/>
      <point x="379" y="69"/>
      <point x="370" y="84"/>
      <point x="370" y="99" type="curve" smooth="yes"/>
      <point x="370" y="174"/>
      <point x="405" y="250"/>
      <point x="431" y="301" type="curve" smooth="yes"/>
      <point x="438" y="317"/>
      <point x="413" y="340"/>
      <point x="397" y="336" type="curve" smooth="yes"/>
      <point x="370" y="334"/>
      <point x="339" y="325"/>
      <point x="330" y="301" type="curve" smooth="yes"/>
      <point x="322" y="276"/>
      <point x="315" y="263"/>
      <point x="306" y="241" type="curve"/>
      <point x="275" y="221"/>
      <point x="214" y="207"/>
      <point x="165" y="210" type="curve"/>
      <point x="245" y="314"/>
      <point x="315" y="380"/>
      <point x="319" y="557" type="curve" smooth="yes"/>
      <point x="321" y="610"/>
      <point x="296" y="641"/>
      <point x="245" y="641" type="curve" smooth="yes"/>
      <point x="86" y="641"/>
      <point x="15" y="238"/>
      <point x="15" y="-7" type="curve" smooth="yes"/>
      <point x="15" y="-90"/>
      <point x="26" y="-208"/>
    </contour>
    <contour>
      <point x="120" y="-126" type="curve" smooth="yes"/>
      <point x="110" y="-126"/>
      <point x="100" y="-63"/>
      <point x="100" y="-10" type="curve" smooth="yes"/>
      <point x="100" y="-50"/>
      <point x="94" y="143"/>
      <point x="122" y="143" type="curve" smooth="yes"/>
      <point x="130" y="170"/>
      <point x="154" y="49"/>
      <point x="149" y="-13" type="curve" smooth="yes"/>
      <point x="145" y="-41"/>
      <point x="151" y="-126"/>
    </contour>
    <contour>
      <point x="425" y="383" type="curve" smooth="yes"/>
      <point x="469" y="383"/>
      <point x="500" y="409"/>
      <point x="500" y="456" type="curve" smooth="yes"/>
      <point x="500" y="499"/>
      <point x="471" y="514"/>
      <point x="433" y="514" type="curve" smooth="yes"/>
      <point x="390" y="514"/>
      <point x="354" y="488"/>
      <point x="354" y="446" type="curve" smooth="yes"/>
      <point x="354" y="404"/>
      <point x="383" y="383"/>
    </contour>
    <contour>
      <point x="139" y="301" type="curve"/>
      <point x="163" y="448"/>
      <point x="204" y="551"/>
      <point x="236" y="551" type="curve" smooth="yes"/>
      <point x="246" y="551"/>
      <point x="246" y="537"/>
      <point x="247" y="522" type="curve" smooth="yes"/>
      <point x="251" y="496"/>
      <point x="171" y="382"/>
    </contour>
  </outline>
</glyph>
